# xmcd CD database file
#
# Track frame offsets:
#	150
#	44030
#	79598
#	112643
#	141400
#	170145
#	209678
#	234623
#
# Disc length: 3736 seconds
#
# Revision: 0
# Processed by: cddbd v1.5.2PL0 Copyright (c) Steve Scherf et al.
# Submitted via: CDex 1.70beta2
#
DISCID=720e9608
DTITLE=John Swana - John Swana and Friends(1991)
DYEAR=1991
DGENRE=Jazz
TTITLE0=Oleo 
TTITLE1=Before You 
TTITLE2=Darn That Dream 
TTITLE3=Out of My Dreams 
TTITLE4=You Don't Know What Love Is 
TTITLE5=Straight, No Chaser 
TTITLE6=I Didn't Know What Time It Was 
TTITLE7=Pendulum at Falcon's Lair 
EXTD=YEAR: 1991
EXTT0=
EXTT1=
EXTT2=
EXTT3=
EXTT4=
EXTT5=
EXTT6=
EXTT7=
PLAYORDER=
